<svg xmlns="http://www.w3.org/2000/svg" viewBox="0 0 164.86 40">
  <path fill="#A6A6A6" d="M155.33 0H8.44l-.92.01c-.66.02-1.34.06-2 .18A6.67 6.67 0 002 2 6.26 6.26 0 00.2 5.53a13 13 0 00-.18 2L0 8.44V31.56c0 .3 0 .61.02.92a13 13 0 00.17 2A6.59 6.59 0 002 38a6.27 6.27 0 003.53 1.81c.66.12 1.34.16 2 .18a41.61 41.61 0 002.01.01H156.41l.92-.01c.67-.02 1.35-.06 2-.18a6.28 6.28 0 004.7-3.42c.32-.61.52-1.24.63-1.9.12-.67.16-1.34.19-2.01v-.92V9.54v-1.1-.92a13.5 13.5 0 00-.2-2 6.62 6.62 0 00-1.8-3.52 6.44 6.44 0 00-3.52-1.8c-.65-.13-1.33-.17-2-.19h-.92L155.33 0z"/>
  <path d="M8.44 39.13c-.3 0-.6 0-.9-.02-.56-.01-1.22-.04-1.87-.16a5.88 5.88 0 01-3.05-1.56 5.32 5.32 0 01-1.57-3.06C.93 33.66.9 32.98.9 32.46l-.02-.92V8.44l.02-.89c.01-.52.04-1.2.16-1.87a5.76 5.76 0 011.56-3.06 5.57 5.57 0 013.06-1.57C6.34.93 7.02.9 7.54.9l.9-.02h147.97l.9.02c.52.01 1.2.04 1.87.16a5.53 5.53 0 014.62 4.62 13 13 0 01.17 1.88v.9l.01 1.09v22.93c-.03.59-.06 1.24-.18 1.85a5.48 5.48 0 01-2.96 4.08c-.51.26-1.04.44-1.66.55-.64.12-1.3.15-1.87.16l-.9.01H8.44z"/>
  <linearGradient id="a" gradientUnits="userSpaceOnUse" x1="20.1" y1="7.42" x2="20.1" y2="32.58">
    <stop offset="0" stop-color="#f452ff"/>
    <stop offset="1" stop-color="#832bc1"/>
  </linearGradient>
  <path fill-rule="evenodd" clip-rule="evenodd" fill="url(#a)" d="M32.18 29.23a5.32 5.32 0 01-3.38 3.03c-.8.24-1.8.32-3.04.32H14.44c-1.24 0-2.24-.08-3.04-.32A5.27 5.27 0 018 29.23a9.86 9.86 0 01-.5-3.57V14.34c0-.9.01-2.32.5-3.57a5.32 5.32 0 013.39-3.03c.8-.24 1.8-.32 3.04-.32h11.32c1.24 0 2.23.08 3.04.32a5.27 5.27 0 013.38 3.03c.5 1.25.5 2.67.5 3.57v11.32c0 .9 0 2.32-.5 3.57z"/>
  <path clip-rule="evenodd" fill="none" d="M32.18 29.23a5.32 5.32 0 01-3.38 3.03c-.8.24-1.8.32-3.04.32H14.44c-1.24 0-2.24-.08-3.04-.32A5.27 5.27 0 018 29.23a9.86 9.86 0 01-.5-3.57V14.34c0-.9.01-2.32.5-3.57a5.32 5.32 0 013.39-3.03c.8-.24 1.8-.32 3.04-.32h11.32c1.24 0 2.23.08 3.04.32a5.27 5.27 0 013.38 3.03c.5 1.25.5 2.67.5 3.57v11.32c0 .9 0 2.32-.5 3.57z"/>
  <path fill="#FFF" d="M21.92 21.88a2.52 2.52 0 00-1.82-.65c-.78 0-1.45.25-1.82.65-.2.2-.3.42-.34.73-.06.58-.03 1.09.04 1.9.07.77.2 1.8.36 2.85.11.74.2 1.14.3 1.43.13.47.65.88 1.46.88.81 0 1.33-.41 1.47-.88.08-.29.18-.69.3-1.43.16-1.05.28-2.08.35-2.85.07-.81.1-1.32.04-1.9-.04-.3-.14-.52-.34-.73zm-3.88-3.55a2.06 2.06 0 104.12 0 2.06 2.06 0 00-4.12 0zm2.04-8.12a8.86 8.86 0 00-2.9 17.2c.08.03.16-.04.15-.13l-.13-.91a.3.3 0 00-.18-.24 7.73 7.73 0 013.02-14.79 7.73 7.73 0 013.14 14.8.3.3 0 00-.18.23l-.13.9c-.01.1.08.17.16.14a8.86 8.86 0 00-2.95-17.2zm-.16 4.06a4.8 4.8 0 013.47 8.28.37.37 0 00-.12.3c.02.32.01.64-.01 1 0 .1.1.16.18.1a5.93 5.93 0 10-6.67 0c.08.06.19 0 .18-.1a8.48 8.48 0 010-1c0-.12-.05-.22-.12-.3a4.78 4.78 0 013.09-8.28z"/>
  <g fill="#FFF">
    <path d="M46.22 27.82H41.5l-1.14 3.36h-2l4.48-12.42h2.08l4.49 12.42h-2.04l-1.14-3.36zm-4.24-1.55h3.75l-1.85-5.44h-.05l-1.85 5.44zM59.08 26.65c0 2.82-1.5 4.62-3.78 4.62-1.29 0-2.31-.57-2.85-1.58h-.04v4.48h-1.86V22.12h1.8v1.51h.04a3.21 3.21 0 012.88-1.6c2.3 0 3.81 1.82 3.81 4.62zm-1.91 0c0-1.83-.95-3.04-2.4-3.04-1.41 0-2.37 1.23-2.37 3.04 0 1.83.96 3.05 2.38 3.05 1.44 0 2.39-1.2 2.39-3.05zM69.05 26.65c0 2.82-1.51 4.62-3.78 4.62-1.3 0-2.32-.57-2.85-1.58h-.04v4.48h-1.86V22.12h1.8v1.51h.03a3.21 3.21 0 012.88-1.6c2.3 0 3.82 1.82 3.82 4.62zm-1.91 0c0-1.83-.95-3.04-2.4-3.04-1.42 0-2.37 1.23-2.37 3.04 0 1.83.95 3.05 2.37 3.05 1.45 0 2.4-1.2 2.4-3.05zM70.55 18.76h1.86v12.42h-1.86V18.76zM82.09 28.52c-.25 1.64-1.86 2.77-3.9 2.77-2.64 0-4.27-1.76-4.27-4.6 0-2.83 1.64-4.68 4.19-4.68 2.5 0 4.08 1.72 4.08 4.47v.64h-6.4v.1c0 1.56.98 2.57 2.44 2.57 1.03 0 1.84-.49 2.1-1.27h1.76zm-6.29-2.7h4.53c-.04-1.39-.93-2.3-2.22-2.3-1.28 0-2.21.93-2.3 2.3zM92.09 18.76a3.9 3.9 0 014.09 4.08c0 2.43-1.72 4.1-4.15 4.1h-2.67v4.24h-1.93V18.76h4.66zm-2.73 6.56h2.21c1.68 0 2.63-.9 2.63-2.47 0-1.57-.95-2.46-2.62-2.46h-2.22v4.93zM96.85 26.65c0-2.85 1.68-4.64 4.3-4.64s4.3 1.8 4.3 4.64c0 2.86-1.67 4.64-4.3 4.64-2.64 0-4.3-1.78-4.3-4.64zm6.7 0c0-1.95-.9-3.1-2.4-3.1s-2.4 1.16-2.4 3.1c0 1.96.9 3.1 2.4 3.1s2.4-1.14 2.4-3.1zM106.75 26.65c0-2.8 1.54-4.62 3.78-4.62 1.3 0 2.33.6 2.84 1.6h.04v-4.87h1.87v12.42h-1.81v-1.54h-.04a3.09 3.09 0 01-2.88 1.63c-2.26 0-3.8-1.82-3.8-4.62zm1.9 0c0 1.86.95 3.05 2.4 3.05 1.42 0 2.38-1.2 2.38-3.05 0-1.82-.96-3.04-2.39-3.04-1.44 0-2.4 1.2-2.4 3.04zM123.18 25.24c-.16-.95-.9-1.67-2.13-1.67-1.43 0-2.38 1.2-2.38 3.08 0 1.93.96 3.1 2.4 3.1 1.15 0 1.9-.58 2.11-1.63h1.8c-.21 1.9-1.74 3.17-3.93 3.17-2.58 0-4.27-1.76-4.27-4.64 0-2.81 1.69-4.64 4.25-4.64 2.33 0 3.77 1.47 3.93 3.23h-1.78zM126.11 28.6c0-1.58 1.22-2.53 3.37-2.66l2.48-.14v-.69c0-1-.67-1.57-1.8-1.57-1.03 0-1.75.49-1.9 1.27h-1.73c.05-1.64 1.57-2.8 3.69-2.8 2.16 0 3.59 1.18 3.59 2.96v6.2h-1.79V29.7h-.04a3.24 3.24 0 01-2.86 1.64c-1.77 0-3-1.1-3-2.72zm5.85-.81v-.7l-2.23.14c-1.11.07-1.74.55-1.74 1.32 0 .8.65 1.31 1.65 1.31 1.3 0 2.32-.9 2.32-2.07zM139 22.02c2 0 3.44 1.11 3.48 2.71h-1.75c-.08-.8-.75-1.29-1.79-1.29-1 0-1.68.47-1.68 1.17 0 .54.45.9 1.39 1.14l1.52.35c1.83.44 2.52 1.11 2.52 2.44 0 1.63-1.55 2.75-3.76 2.75-2.14 0-3.58-1.1-3.71-2.75h1.84c.13.87.82 1.34 1.95 1.34 1.11 0 1.8-.46 1.8-1.18 0-.56-.34-.86-1.28-1.1l-1.62-.4c-1.64-.4-2.46-1.23-2.46-2.48 0-1.6 1.44-2.7 3.54-2.7zM146.72 19.98v2.14h1.73v1.48h-1.73v4.99c0 .77.35 1.13 1.1 1.13.2 0 .5-.02.62-.04v1.46c-.2.06-.62.09-1.04.09-1.83 0-2.54-.69-2.54-2.44v-5.2h-1.32v-1.46h1.32v-2.15h1.86zM153.44 22.02c2 0 3.45 1.11 3.49 2.71h-1.75c-.08-.8-.76-1.29-1.79-1.29-1 0-1.68.47-1.68 1.17 0 .54.45.9 1.39 1.14l1.52.35c1.83.44 2.52 1.11 2.52 2.44 0 1.63-1.55 2.75-3.77 2.75-2.13 0-3.57-1.1-3.7-2.75h1.84c.13.87.82 1.34 1.95 1.34 1.11 0 1.8-.46 1.8-1.18 0-.56-.34-.86-1.28-1.1l-1.62-.4c-1.64-.4-2.46-1.23-2.46-2.48 0-1.6 1.43-2.7 3.54-2.7z"/>
  </g>
  <g fill="#FFF">
    <path d="M42.96 14.66h-3.72V8.7h.92v5.12h2.8v.85zM44.03 8.83c0-.31.25-.55.58-.55.33 0 .57.24.57.55 0 .3-.24.54-.57.54-.33 0-.58-.24-.58-.54zm.14 1.33h.88v4.5h-.88v-4.5zM48.13 10.07c1.01 0 1.68.47 1.76 1.27h-.85c-.08-.33-.4-.55-.9-.55s-.88.24-.88.6c0 .26.23.43.71.54l.75.18c.86.2 1.26.56 1.26 1.22 0 .85-.8 1.42-1.87 1.42s-1.77-.49-1.84-1.28h.88c.12.34.45.56.98.56.56 0 .95-.25.95-.61 0-.27-.2-.44-.66-.55l-.79-.18c-.85-.2-1.25-.59-1.25-1.26 0-.8.73-1.36 1.75-1.36zM52.35 9.04v1.14h.97v.75h-.97v2.31c0 .47.19.68.63.68.14 0 .22 0 .34-.02v.74c-.14.02-.3.05-.48.05-1 0-1.38-.35-1.38-1.22v-2.54h-.72v-.75h.72V9.04h.89zM58.25 13.45c-.2.8-.92 1.3-1.95 1.3-1.29 0-2.08-.89-2.08-2.33s.8-2.35 2.08-2.35c1.25 0 2 .86 2 2.27v.31h-3.17v.05c.03.8.48 1.3 1.2 1.3.53 0 .9-.2 1.07-.55h.85zm-3.12-1.46h2.27c-.02-.7-.45-1.16-1.1-1.16-.66 0-1.12.46-1.17 1.16zM59.5 10.16h.86v.71h.06c.22-.5.67-.8 1.35-.8 1 0 1.55.6 1.55 1.68v2.91h-.88v-2.7c0-.71-.32-1.07-.98-1.07-.65 0-1.07.43-1.07 1.14v2.63h-.9v-4.5zM66.92 12.4c0-1.44.8-2.33 2.12-2.33 1.31 0 2.12.89 2.12 2.34 0 1.46-.8 2.34-2.12 2.34s-2.12-.88-2.12-2.34zm3.33 0c0-.97-.44-1.54-1.2-1.54-.78 0-1.21.57-1.21 1.55 0 .98.43 1.55 1.2 1.55s1.21-.57 1.21-1.55zM72.36 10.16h.85v.71h.07c.22-.5.67-.8 1.34-.8 1 0 1.56.6 1.56 1.68v2.91h-.89v-2.7c0-.71-.31-1.07-.97-1.07-.66 0-1.07.43-1.07 1.14v2.63h-.9v-4.5z"/>
  </g>
</svg>
