<svg xmlns="http://www.w3.org/2000/svg" viewBox="0 0 134 34">
  <g fill="none" fill-rule="evenodd">
    <rect x=".25" y=".25" width="133.5" height="33.5" rx="8" fill="#FFF" stroke="#9AA0A6" stroke-width=".5"/>
    <path d="M5 5h24v24H5z"/>
    <path d="M7.38 14.88c-.76 0-1.38.61-1.38 1.37v1.5a1.37 1.37 0 102.75 0v-1.5c0-.76-.62-1.38-1.38-1.38z" fill="#0066D9" fill-rule="nonzero"/>
    <path d="M26.63 14.88c-.77 0-1.38.61-1.38 1.37v1.5a1.37 1.37 0 102.75 0v-1.5c0-.76-.61-1.38-1.38-1.38z" fill="#4285F4" fill-rule="nonzero"/>
    <path d="M12.13 19.38c-.77 0-1.38.61-1.38 1.37v1.5a1.37 1.37 0 102.75 0v-1.5c0-.76-.62-1.38-1.38-1.38zM12.13 10.38c-.77 0-1.38.61-1.38 1.37v4.9a1.37 1.37 0 002.75 0v-4.9c0-.76-.62-1.38-1.38-1.38z" fill="#EA4335" fill-rule="nonzero"/>
    <path d="M21.88 10.38c-.77 0-1.38.61-1.38 1.37v1.5a1.37 1.37 0 102.75 0v-1.5c0-.76-.61-1.38-1.38-1.38z" fill="#34A853" fill-rule="nonzero"/>
    <path d="M17 6c-.76 0-1.38.61-1.38 1.38v1.5a1.37 1.37 0 102.76 0v-1.5C18.38 6.62 17.75 6 17 6zM17 23.75c-.76 0-1.38.61-1.38 1.38v1.5a1.37 1.37 0 102.76 0v-1.5c0-.77-.62-1.38-1.38-1.38z" fill="#FAB908" fill-rule="nonzero"/>
    <path d="M21.88 16c-.77 0-1.38.62-1.38 1.38v4.87a1.37 1.37 0 102.75 0v-4.88c0-.76-.61-1.37-1.38-1.37z" fill="#34A853" fill-rule="nonzero"/>
    <path d="M18.38 13a1.37 1.37 0 10-2.75 0v8a1.37 1.37 0 102.74 0v-8z" fill="#FAB908" fill-rule="nonzero"/>
    <g>
      <path d="M35 16h91v14H35z"/>
      <path d="M79.95 26.5v-3.65h1.96c.5 0 .96-.11 1.39-.34.42-.22.76-.54 1.02-.94.25-.4.38-.86.38-1.37 0-.5-.13-.96-.38-1.37-.26-.4-.6-.72-1.02-.94a2.92 2.92 0 00-1.39-.34H78.9v8.95h1.05zm1.99-4.66h-1.99v-3.28h1.99c.33 0 .62.08.88.24.25.16.45.36.6.61a1.57 1.57 0 010 1.58 1.7 1.7 0 01-.6.61c-.26.16-.55.24-.88.24zm6.27 4.86a3.22 3.22 0 002.86-1.68c.28-.51.42-1.08.42-1.7 0-.63-.14-1.2-.42-1.72a3.15 3.15 0 00-2.86-1.68 3.22 3.22 0 00-2.85 1.68 3.54 3.54 0 00-.42 1.71c0 .63.14 1.2.42 1.72a3.15 3.15 0 002.85 1.67zm0-.96a2.18 2.18 0 01-1.92-1.14c-.2-.37-.3-.8-.3-1.29s.1-.92.3-1.29a2.16 2.16 0 011.92-1.13 2.14 2.14 0 011.9 1.13c.21.37.32.8.32 1.3 0 .48-.1.91-.31 1.28a2.17 2.17 0 01-1.9 1.14zm7.04.96a2.58 2.58 0 002.19-1.14h.05v.94h1.01v-8.95h-1.06v2.64l.05.88h-.05a2.58 2.58 0 00-2.19-1.15c-.57 0-1.08.15-1.54.44-.47.3-.83.7-1.1 1.21-.26.52-.4 1.1-.4 1.74 0 .65.14 1.23.4 1.75.27.5.63.91 1.1 1.2.46.3.97.44 1.54.44zm.13-.96c-.37 0-.72-.1-1.04-.3-.33-.2-.59-.49-.78-.86-.2-.37-.3-.8-.3-1.27s.1-.9.3-1.27c.2-.37.45-.65.78-.85a1.95 1.95 0 012.08 0c.32.2.58.48.77.85.2.36.3.79.3 1.27 0 .49-.1.91-.3 1.28-.2.36-.45.65-.77.85-.32.2-.67.3-1.05.3zm7.34.96c.69 0 1.27-.16 1.75-.49a2.8 2.8 0 001.04-1.27l-.95-.4c-.16.38-.4.68-.72.89a2.1 2.1 0 01-3-.85c-.2-.37-.29-.8-.29-1.27s.1-.9.3-1.26c.19-.37.45-.65.78-.86.32-.2.67-.3 1.05-.3.44 0 .81.1 1.13.3.3.2.54.5.7.9l.96-.4c-.2-.54-.53-.96-1-1.28a3.02 3.02 0 00-1.75-.49 3.2 3.2 0 00-1.66.44c-.49.3-.87.7-1.15 1.22-.27.51-.41 1.1-.41 1.73 0 .64.14 1.22.41 1.73a3.1 3.1 0 002.81 1.66zm5.74 0a2.39 2.39 0 002.07-1.11h.05v.91h1v-4.04c0-.78-.24-1.4-.74-1.85a2.91 2.91 0 00-2.04-.69c-.53 0-1.02.11-1.46.33-.43.22-.78.52-1.03.9l.8.6c.18-.28.42-.49.72-.64.3-.16.62-.24.98-.24.51 0 .93.15 1.27.44.33.28.5.66.5 1.14v.39c-.18-.11-.43-.2-.76-.29a4.35 4.35 0 00-1.07-.13c-.78 0-1.42.2-1.92.57-.51.38-.77.91-.77 1.58a2.02 2.02 0 001.15 1.85c.37.19.79.28 1.25.28zm.1-.94c-.4 0-.74-.1-1.01-.32s-.4-.5-.4-.85c0-.39.15-.7.44-.94.3-.24.74-.36 1.32-.36a3.35 3.35 0 011.67.45 2.08 2.08 0 01-1.01 1.75c-.32.18-.65.27-1 .27zm6.49.94c.47 0 .9-.08 1.28-.24.38-.16.68-.38.9-.68.23-.3.34-.64.34-1.03 0-.45-.15-.83-.47-1.14a3.04 3.04 0 00-1.41-.71l-.93-.24c-.36-.09-.64-.2-.82-.35a.7.7 0 01-.28-.57c0-.25.13-.46.4-.62.26-.16.56-.25.91-.25.73 0 1.23.29 1.52.85l.92-.42c-.18-.43-.5-.77-.93-1.01a3.04 3.04 0 00-1.5-.36c-.42 0-.81.07-1.18.22-.37.15-.66.36-.88.64-.22.28-.33.6-.33.97 0 .48.16.87.48 1.17.33.3.75.5 1.26.63l.77.2c.48.12.84.26 1.06.42.23.16.34.38.34.65 0 .3-.14.53-.42.69-.29.16-.63.24-1.03.24-.38 0-.72-.1-1.03-.31a1.9 1.9 0 01-.7-.89l-.96.43c.2.5.52.9.98 1.23.46.32 1.03.48 1.71.48zm5.9-.1c.2 0 .36-.01.5-.04.12-.02.25-.06.38-.12V25.4a1.3 1.3 0 01-.7.21c-.3 0-.53-.09-.7-.27-.13-.17-.2-.43-.2-.78V21.1h1.56v-.97h-1.55v-1.8h-1.06v1.8h-1.12v.97h1.11v3.73c0 .3.05.56.13.77a1.54 1.54 0 00.93.88c.22.09.46.13.72.13zm4.3.1c.47 0 .9-.08 1.28-.24.38-.16.68-.38.9-.68.23-.3.34-.64.34-1.03 0-.45-.15-.83-.47-1.14a3.04 3.04 0 00-1.41-.71l-.93-.24c-.36-.09-.64-.2-.82-.35a.7.7 0 01-.28-.57c0-.25.13-.46.4-.62.26-.16.56-.25.91-.25.73 0 1.23.29 1.52.85l.92-.42c-.18-.43-.5-.77-.93-1.01a3.04 3.04 0 00-1.5-.36c-.42 0-.81.07-1.18.22-.37.15-.66.36-.88.64-.22.28-.33.6-.33.97 0 .48.16.87.48 1.17.33.3.75.5 1.26.63l.77.2c.48.12.84.26 1.06.42.23.16.34.38.34.65 0 .3-.14.53-.42.69-.29.16-.63.24-1.03.24-.38 0-.72-.1-1.03-.31a1.9 1.9 0 01-.7-.89l-.96.43c.2.5.52.9.98 1.23.46.32 1.03.48 1.71.48zM63.23 20.08c.8 0 1.41.35 1.73.74h.05v-.53h1.38v5.9c0 2.43-1.43 3.42-3.12 3.42a3.13 3.13 0 01-2.91-1.94l1.25-.53c.22.54.77 1.17 1.65 1.17 1.08 0 1.75-.67 1.75-1.93v-.47h-.05c-.32.4-.94.75-1.73.75a3.26 3.26 0 01-3.15-3.28c0-1.86 1.51-3.3 3.15-3.3zm-14.24.1c1.82 0 3.3 1.38 3.3 3.29 0 1.9-1.48 3.28-3.3 3.28a3.24 3.24 0 01-3.3-3.28c0-1.9 1.48-3.29 3.3-3.29zm7.2 0c1.81 0 3.3 1.38 3.3 3.29 0 1.9-1.49 3.28-3.3 3.28a3.24 3.24 0 01-3.3-3.28c0-1.9 1.48-3.29 3.3-3.29zm16.43 0c1.7 0 2.53 1.35 2.8 2.1l.15.36-4.4 1.82c.35.65.86.99 1.6.99a1.9 1.9 0 001.62-.9l1.12.74a3.29 3.29 0 01-2.74 1.46 3.22 3.22 0 01-3.26-3.28c0-1.96 1.41-3.29 3.1-3.29zm-32.15-3.7c1.56 0 2.67.62 3.5 1.42l-.99.98a3.66 3.66 0 00-6.16 2.7c0 2.05 1.6 3.7 3.65 3.7 1.34 0 2.1-.53 2.58-1.02.4-.4.66-.97.76-1.75h-3.34v-1.39h4.7c.05.26.08.55.08.88 0 1.05-.28 2.34-1.2 3.26a4.7 4.7 0 01-3.58 1.42 5.17 5.17 0 01-5.18-5.09c0-2.82 2.36-5.1 5.18-5.1zm28.34.4v9.65h-1.44v-9.65h1.44zM49 21.46c-1 0-1.86.81-1.86 2 0 1.17.87 1.99 1.86 1.99 1 0 1.86-.82 1.86-2 0-1.18-.87-1.99-1.86-1.99zm7.2 0c-1 0-1.86.81-1.86 2 0 1.17.86 1.99 1.85 1.99 1 0 1.86-.82 1.86-2 0-1.18-.85-1.99-1.86-1.99zm7.17-.08c-1 0-1.83.84-1.83 2 0 1.15.84 1.98 1.83 1.98.98 0 1.76-.82 1.75-1.98 0-1.16-.77-2-1.75-2zm9.3.06a1.8 1.8 0 00-1.72 1.92l2.94-1.22c-.16-.41-.64-.7-1.22-.7z" fill="#3C4043" fill-rule="nonzero"/>
    </g>
    <path d="M39.62 13v-.69H36.6v-5.7h-.85V13h3.88zm1.55-5.55c.15 0 .27-.05.36-.14.08-.08.12-.2.12-.33a.48.48 0 00-.12-.33c-.09-.1-.2-.14-.36-.14-.16 0-.28.05-.36.14-.08.1-.12.2-.12.33 0 .14.04.25.12.33.08.1.2.14.36.14zm.4 5.55V8.25h-.82V13h.82zm3.27.09c.54 0 .98-.13 1.32-.39.34-.25.51-.6.51-1.02 0-.25-.06-.47-.18-.65-.12-.17-.3-.33-.56-.45a4.38 4.38 0 00-.99-.33c-.4-.09-.68-.18-.84-.28a.5.5 0 01-.23-.45c0-.2.08-.37.25-.5.17-.13.4-.2.7-.2.28 0 .52.09.7.25.2.16.3.35.3.57h.81c0-.43-.17-.79-.5-1.07a1.99 1.99 0 00-1.32-.41c-.5 0-.93.13-1.26.4-.33.27-.5.6-.5.99 0 .23.06.44.18.6.12.18.3.32.54.45.24.12.57.22.98.31.4.09.7.2.86.32.17.12.25.29.25.5 0 .22-.1.38-.28.5-.18.13-.43.2-.74.2-.33 0-.6-.09-.8-.25a.84.84 0 01-.33-.64h-.82c0 .28.09.54.25.78.17.24.4.43.69.57.3.13.63.2 1.01.2zm4.5 0c.2 0 .42-.03.63-.09v-.66c-.16.04-.3.05-.39.05-.19 0-.32-.04-.4-.14-.08-.1-.12-.24-.12-.43V8.87h.89v-.62h-.89V7.09h-.81v1.16h-.87v.62h.87v2.95c0 .4.09.72.27.94.19.22.46.33.83.33zm3.76 0a2 2 0 001.79-.92l-.5-.39c-.15.2-.32.35-.52.47s-.44.17-.73.17c-.4 0-.74-.14-1-.43s-.4-.67-.41-1.13h3.22v-.34c0-.76-.17-1.34-.51-1.75-.35-.4-.83-.61-1.45-.61-.37 0-.72.1-1.05.31-.32.21-.57.5-.75.87-.18.37-.27.8-.27 1.26v.15c0 .71.2 1.28.6 1.7.4.43.93.64 1.58.64zm1.04-2.9h-2.38c.05-.43.19-.77.4-1 .23-.25.5-.36.83-.36.34 0 .61.1.81.34.2.22.31.54.34.96v.06zM56.93 13V9.61c.11-.23.27-.41.46-.55.2-.14.44-.21.7-.21.32 0 .56.08.72.24.15.17.23.42.23.76V13h.82V9.86c-.01-1.14-.52-1.7-1.53-1.7-.58 0-1.06.23-1.42.68l-.03-.6h-.76V13h.8zm8.78.09a2.02 2.02 0 001.9-1.17c.17-.37.26-.78.26-1.24v-.06c0-.75-.2-1.34-.6-1.79a2 2 0 00-1.57-.67c-.42 0-.79.1-1.12.3-.32.2-.58.49-.76.86-.18.37-.28.8-.28 1.26v.06c0 .73.2 1.33.6 1.78a2 2 0 001.57.67zm0-.67c-.4 0-.74-.16-.98-.47a2.03 2.03 0 01-.37-1.27c0-.6.12-1.06.37-1.38.25-.32.57-.47.97-.47.41 0 .74.16.99.48.25.32.37.75.37 1.27 0 .58-.12 1.03-.36 1.36-.25.32-.58.48-.99.48zm4.22.58V9.61c.11-.23.27-.41.47-.55.2-.14.43-.21.7-.21.32 0 .56.08.7.24.16.17.24.42.24.76V13h.82V9.86c-.01-1.14-.52-1.7-1.52-1.7-.59 0-1.06.23-1.43.68l-.02-.6h-.77V13h.81z" fill="#5F6368" fill-rule="nonzero"/>
  </g>
</svg>
